<?xml version="1.0" standalone="no"?>
<!DOCTYPE svg PUBLIC "-//W3C//DTD SVG 20010904//EN"
 "http://www.w3.org/TR/2001/REC-SVG-20010904/DTD/svg10.dtd">
<svg version="1.0" xmlns="http://www.w3.org/2000/svg"
 width="500.000000pt" height="500.000000pt" viewBox="0 0 500.000000 500.000000"
 preserveAspectRatio="xMidYMid meet">
<metadata>
Created by potrace 1.16, written by Peter Selinger 2001-2019
</metadata>
<g transform="translate(0.000000,500.000000) scale(0.100000,-0.100000)"
fill="#000000" stroke="none">
<path d="M2910 3965 c-9 -11 -11 -35 -7 -76 5 -63 -16 -165 -33 -154 -14 9
-24 -143 -11 -171 7 -16 11 -100 11 -233 0 -114 3 -211 6 -214 18 -18 45 19
64 86 35 120 39 120 39 6 1 -82 4 -109 16 -119 21 -18 19 -68 -9 -155 -13 -41
-20 -77 -16 -80 19 -12 100 154 123 250 3 11 5 -48 6 -132 1 -136 -1 -152 -16
-156 -17 -4 -17 -5 0 -6 25 -2 21 -38 -5 -55 -27 -17 -115 -36 -165 -36 -28 0
-33 3 -24 13 6 8 27 63 47 123 30 90 37 123 36 190 0 45 -3 97 -7 115 l-7 33
-15 -30 c-9 -16 -30 -45 -47 -64 -18 -19 -47 -58 -65 -87 -18 -29 -50 -68 -72
-88 -35 -31 -47 -36 -87 -35 -26 0 -73 -2 -104 -6 -34 -4 -70 -2 -90 5 -31 10
-32 10 -13 -5 l20 -17 -20 7 c-11 4 -33 10 -50 13 l-30 6 39 -42 c22 -22 48
-44 59 -47 31 -10 14 -25 -56 -49 l-67 -22 -30 22 c-16 12 -47 30 -69 39 -33
16 -42 16 -54 5 -14 -12 -12 -17 10 -40 l24 -27 -58 -7 c-32 -3 -68 -9 -80
-12 -21 -5 -23 -1 -23 33 0 20 -3 34 -7 31 -3 -4 -6 -22 -5 -41 l1 -35 -57 -6
c-31 -4 -75 -10 -97 -14 l-40 -8 60 -9 c33 -5 179 -9 324 -9 263 0 281 -4 99
-24 -235 -26 -511 0 -493 47 3 9 0 12 -9 9 -9 -4 -16 4 -20 21 -9 45 -22 58
-40 43 -13 -11 -17 -11 -20 0 -2 8 -11 36 -20 63 -9 27 -16 56 -16 63 0 8 -11
29 -23 46 -13 18 -29 59 -36 92 -12 57 -46 193 -76 300 -8 28 -16 59 -17 70
-2 11 -11 21 -21 23 -17 3 -18 -3 -12 -69 4 -40 9 -78 12 -84 4 -7 3 -7 -4 0
-20 20 -32 77 -28 135 3 33 0 62 -5 65 -6 4 -11 -12 -12 -37 -1 -24 -5 -2 -8
47 -4 50 -7 -112 -7 -360 l0 -450 -44 -6 c-24 -4 -84 -12 -134 -19 -300 -40
-587 -103 -691 -150 -98 -44 -138 -109 -138 -221 0 -63 5 -87 28 -132 38 -79
70 -103 149 -111 38 -4 90 -19 124 -36 33 -15 84 -35 114 -44 67 -20 71 -23
99 -66 16 -25 21 -29 17 -12 -8 35 1 26 24 -24 12 -27 17 -49 11 -53 -5 -3 -6
-15 -1 -26 l8 -20 1 20 c1 18 2 17 11 -4 6 -16 6 -27 0 -31 -12 -7 28 -99 52
-119 22 -18 22 -3 -1 23 -15 18 -14 18 12 -2 29 -22 50 -19 73 10 16 21 41
106 53 188 23 152 67 269 107 284 31 12 481 86 525 86 23 0 79 9 122 20 44 11
81 19 83 17 2 -3 -30 -16 -70 -31 -40 -15 -89 -39 -108 -55 -48 -39 -57 -41
-222 -52 -82 -5 -158 -14 -169 -20 -16 -9 -19 -18 -14 -62 3 -29 8 -160 11
-292 15 -643 58 -911 164 -1035 21 -24 22 -25 34 -5 7 10 24 32 39 47 24 25
33 28 96 28 55 0 75 4 96 21 50 39 53 56 50 294 -2 125 1 242 7 270 6 28 16
86 23 130 7 44 20 94 30 110 15 27 16 27 11 5 -13 -49 -45 -225 -44 -245 1
-25 3 -17 25 77 9 43 21 75 25 72 5 -3 9 136 9 309 l0 315 23 7 c19 7 16 9
-18 14 l-40 6 37 23 c20 12 60 30 88 38 56 16 233 26 224 12 -3 -4 -13 -8 -22
-8 -10 0 -29 -8 -42 -17 l-24 -17 24 -7 25 -7 -27 -1 c-15 -1 -30 -6 -34 -12
-4 -8 5 -9 32 -5 101 15 134 18 134 12 0 -4 -7 -23 -15 -43 -18 -42 -19 -57
-5 -48 12 7 4 -39 -11 -65 -7 -12 -9 -11 -9 5 -1 11 -15 -18 -31 -65 -16 -47
-25 -86 -20 -88 5 -2 6 -13 3 -24 -5 -20 -6 -20 -12 -4 -5 14 -12 2 -29 -45
-13 -35 -57 -149 -98 -254 -41 -104 -79 -201 -84 -214 -8 -19 -12 -21 -25 -11
-12 11 -18 9 -34 -8 -24 -26 -26 -36 -4 -28 14 5 15 1 10 -28 -4 -20 -2 -37 4
-41 5 -3 10 -19 10 -35 0 -33 26 -107 47 -131 7 -8 13 -26 13 -40 0 -33 11
-69 20 -69 13 0 131 180 125 190 -9 14 25 80 40 80 7 0 16 12 20 28 6 24 8 25
14 8 5 -14 21 17 58 115 37 95 48 136 40 141 -7 5 -23 -5 -40 -25 -27 -31 -27
-31 7 38 19 39 43 78 55 87 19 16 20 16 23 0 3 -11 8 -6 15 16 7 18 8 32 2 32
-5 0 -9 5 -9 10 0 17 -39 50 -59 50 -33 0 -43 23 -27 67 22 62 41 95 78 134
44 48 54 46 133 -26 54 -49 238 -384 275 -500 7 -22 37 -88 66 -146 30 -59 61
-126 69 -149 8 -24 29 -66 47 -94 17 -28 32 -66 32 -83 1 -35 16 -42 36 -18 9
11 10 46 2 153 -12 158 -28 212 -65 212 -35 0 -40 11 -11 27 42 21 54 16 76
-34 22 -49 33 -126 44 -293 6 -80 4 -101 -10 -129 -20 -39 -15 -75 16 -109 28
-29 52 -28 77 4 29 37 56 26 109 -41 35 -44 49 -55 72 -55 39 0 58 30 71 111
5 35 19 105 30 154 37 159 49 325 60 835 6 305 14 496 20 499 6 1 3 8 -5 15
-10 8 -15 39 -18 115 l-3 105 63 22 c34 13 106 28 160 34 153 17 206 28 298
67 96 40 154 87 154 125 0 44 -15 50 -185 83 -58 11 -282 20 -375 15 -14 -1
-48 -1 -76 0 l-51 1 -7 46 c-3 25 -2 51 2 57 4 6 5 85 1 176 -4 91 -8 197 -10
235 l-3 70 -5 -85 c-5 -77 -7 -68 -16 110 l-11 195 -18 -39 c-15 -34 -18 -36
-30 -21 -11 15 -14 9 -23 -46 -14 -86 -16 -228 -4 -314 13 -92 16 -103 24
-111 9 -9 9 -270 1 -341 -4 -29 -10 -50 -14 -48 -5 3 -11 -30 -15 -73 -7 -82
-18 -580 -15 -672 4 -137 3 -210 -8 -425 -10 -218 -23 -302 -43 -289 -5 3 -6
-2 -3 -10 3 -9 1 -16 -5 -16 -6 0 -11 6 -11 13 0 9 -3 8 -9 -2 -12 -19 -27 10
-35 69 -1 9 -5 20 -8 25 -3 6 -9 37 -12 69 -4 32 -8 62 -11 66 -17 28 -30 318
-30 686 l0 281 -22 -14 c-38 -25 -58 4 -26 39 15 17 15 19 0 36 -33 36 -12 64
29 38 17 -12 23 -13 22 -4 -2 7 -6 15 -10 18 -15 11 -39 242 -38 355 1 66 1
122 0 125 -1 3 -3 19 -6 35 -10 82 -53 270 -63 273 -6 2 -20 24 -30 48 -12 26
-32 51 -50 62 -30 17 -31 19 -33 97 -1 44 -3 98 -4 120 -1 22 -5 89 -7 149 -6
116 -16 154 -18 65 l-1 -54 -10 48 c-6 34 -5 53 2 63 13 15 4 38 -11 28 -5 -3
-8 0 -7 7 4 19 -62 50 -94 44 -16 -2 -28 0 -28 5 0 15 -16 12 -30 -5z m-1090
-1470 c0 -33 2 -35 35 -35 33 0 35 2 35 35 0 31 3 35 25 35 l25 0 0 -100 0
-100 -25 0 c-22 0 -25 4 -25 40 0 39 -1 40 -35 40 -34 0 -35 -1 -35 -40 0 -36
-2 -40 -25 -40 l-25 0 0 100 0 100 25 0 c22 0 25 -4 25 -35z m220 -45 l0 -80
35 0 35 0 0 80 0 80 31 0 32 0 -7 -87 c-3 -47 -11 -92 -17 -100 -15 -17 -130
-18 -147 -1 -8 8 -12 45 -12 100 0 87 0 88 25 88 25 0 25 -1 25 -80z m229 3
c7 -40 17 -71 21 -68 5 3 14 37 20 75 l12 70 33 0 32 0 -26 -100 -26 -100 -46
0 -46 0 -22 83 c-12 45 -25 90 -27 100 -5 16 -1 18 27 15 33 -3 34 -4 48 -75z
m371 58 c0 -14 -8 -21 -27 -23 l-28 -3 3 -77 3 -78 -31 0 -30 0 0 80 0 80 -30
0 c-23 0 -30 4 -30 20 0 18 7 20 85 20 77 0 85 -2 85 -19z m185 -1 c0 -11 -14
-16 -50 -20 -67 -7 -70 -33 -5 -40 31 -3 45 -10 45 -20 0 -10 -14 -17 -45 -20
-31 -3 -45 -10 -45 -20 0 -11 14 -16 53 -18 44 -3 52 -6 52 -23 0 -17 -7 -19
-80 -19 l-80 0 0 100 0 101 78 -3 c60 -2 77 -6 77 -18z m187 3 c29 -26 23 -53
-12 -53 -21 0 -30 5 -30 16 0 11 -8 14 -27 12 -27 -3 -28 -5 -28 -58 0 -53 1
-55 28 -58 19 -2 27 1 27 12 0 11 9 16 30 16 33 0 40 -22 18 -53 -16 -21 -120
-26 -143 -7 -19 16 -21 160 -3 178 18 18 118 15 140 -5z m98 -18 c0 -33 2 -35
35 -35 33 0 35 2 35 35 0 31 3 35 25 35 l25 0 0 -100 0 -100 -25 0 c-22 0 -25
4 -25 40 0 39 -1 40 -35 40 -34 0 -35 -1 -35 -40 0 -36 -2 -40 -25 -40 l-25 0
0 100 0 100 25 0 c22 0 25 -4 25 -35z m-66 -265 c7 -7 2 -10 -14 -11 -14 0
-34 -4 -45 -9 -12 -4 5 -6 41 -3 l61 6 7 -179 c7 -182 31 -566 43 -684 6 -59
5 -64 -10 -51 -9 7 -19 29 -23 50 -42 243 -58 281 -115 281 -25 0 -29 6 -49
66 -12 36 -24 63 -27 60 -3 -3 0 -20 6 -38 9 -25 9 -30 0 -21 -6 6 -13 33 -14
60 -3 43 -32 117 -161 410 -4 8 22 14 85 18 71 6 89 10 81 20 -29 34 100 59
134 25z"/>
<path d="M2017 3780 c-15 -40 -16 -101 -1 -280 9 -107 18 -235 21 -285 2 -49
7 -97 10 -105 3 -8 5 -30 4 -48 -3 -41 27 -132 45 -139 7 -3 23 -24 35 -48 14
-28 27 -41 35 -38 8 3 14 9 14 14 0 17 27 9 70 -22 59 -43 116 -67 145 -61 35
6 31 21 -20 81 -25 30 -49 70 -55 94 -6 23 -13 48 -16 56 -3 8 1 11 10 8 11
-4 9 11 -9 64 -32 92 -42 151 -60 343 -15 157 -24 203 -26 135 -1 -31 -2 -32
-8 -9 -10 33 -25 -248 -16 -289 3 -17 2 -38 -4 -48 -8 -16 -11 -15 -21 12 -14
35 -85 347 -95 418 -4 26 -11 47 -15 47 -4 0 -11 15 -16 33 -19 77 -21 82 -27
67z"/>
<path d="M4411 2714 c0 -59 -4 -72 -46 -143 -49 -85 -127 -166 -169 -177 -14
-3 -45 -3 -68 0 -123 17 -143 18 -163 2 -16 -12 -18 -18 -9 -33 7 -10 21 -17
33 -16 12 2 55 -8 97 -22 42 -14 93 -25 113 -25 72 1 147 51 208 141 58 85
108 207 80 196 -9 -3 -12 5 -9 29 3 26 0 34 -12 34 -10 0 -16 9 -16 24 0 21
-22 56 -35 56 -2 0 -4 -29 -4 -66z"/>
<path d="M2035 782 c-9 -15 -43 -47 -74 -70 -80 -58 -111 -95 -95 -110 18 -17
39 -15 83 8 82 41 140 125 121 175 -12 32 -15 31 -35 -3z"/>
</g>
</svg>
